<svg width="20" height="22" viewBox="0 0 21 18" fill="currentColor" xmlns="http://www.w3.org/2000/svg">
<path d="M18.95 0.75L2.44995 0.75C2.05213 0.75 1.6706 0.908035 1.38929 1.18934C1.10799 1.47064 0.949951 1.85218 0.949951 2.25L0.949951 16.5C0.950019 16.6278 0.982759 16.7535 1.04506 16.8651C1.10736 16.9768 1.19716 17.0706 1.30593 17.1378C1.41469 17.2049 1.53882 17.2432 1.66652 17.2489C1.79422 17.2546 1.92126 17.2275 2.03558 17.1703L4.69995 15.8381L7.36433 17.1703C7.46852 17.2225 7.58344 17.2496 7.69995 17.2496C7.81647 17.2496 7.93138 17.2225 8.03558 17.1703L10.7 15.8381L13.3643 17.1703C13.4685 17.2225 13.5834 17.2496 13.7 17.2496C13.8165 17.2496 13.9314 17.2225 14.0356 17.1703L16.7 15.8381L19.3643 17.1703C19.4786 17.2275 19.6057 17.2546 19.7334 17.2489C19.8611 17.2432 19.9852 17.2049 20.094 17.1378C20.2027 17.0706 20.2925 16.9768 20.3548 16.8651C20.4171 16.7535 20.4499 16.6278 20.45 16.5L20.45 2.25C20.45 1.85218 20.2919 1.47064 20.0106 1.18934C19.7293 0.908035 19.3478 0.75 18.95 0.75ZM15.2 10.5L6.19995 10.5C6.00104 10.5 5.81027 10.421 5.66962 10.2803C5.52897 10.1397 5.44995 9.94891 5.44995 9.75C5.44995 9.55109 5.52897 9.36032 5.66962 9.21967C5.81027 9.07902 6.00104 9 6.19995 9L15.2 9C15.3989 9 15.5896 9.07902 15.7303 9.21967C15.8709 9.36032 15.95 9.55109 15.95 9.75C15.95 9.94891 15.8709 10.1397 15.7303 10.2803C15.5896 10.421 15.3989 10.5 15.2 10.5ZM15.2 7.5L6.19995 7.5C6.00104 7.5 5.81027 7.42098 5.66962 7.28033C5.52897 7.13968 5.44995 6.94891 5.44995 6.75C5.44995 6.55109 5.52897 6.36032 5.66962 6.21967C5.81027 6.07902 6.00104 6 6.19995 6L15.2 6C15.3989 6 15.5896 6.07902 15.7303 6.21967C15.8709 6.36032 15.95 6.55109 15.95 6.75C15.95 6.94891 15.8709 7.13968 15.7303 7.28033C15.5896 7.42098 15.3989 7.5 15.2 7.5Z"/>
</svg>
