<svg width="22" height="22" viewBox="0 0 21 20" fill="currentColor" xmlns="http://www.w3.org/2000/svg">
<path d="M0.820319 8.83186C1.04179 6.97473 1.80139 5.22287 3.00563 3.79186C3.13888 3.63118 3.30419 3.50009 3.491 3.40695C3.67781 3.31382 3.882 3.2607 4.09051 3.251C4.29902 3.24129 4.50726 3.27521 4.70192 3.35058C4.89657 3.42596 5.07335 3.54113 5.22094 3.68874L7.81501 6.33811C8.06483 6.58736 8.21792 6.9173 8.24695 7.269C8.27597 7.62071 8.17903 7.97128 7.97344 8.25811C7.81772 8.47903 7.70044 8.72467 7.62657 8.98467C7.6031 9.06139 7.55566 9.12855 7.4912 9.17631C7.42674 9.22406 7.34866 9.24988 7.26844 9.24999L1.19344 9.24999C1.14051 9.25007 1.08815 9.23895 1.03982 9.21735C0.991492 9.19575 0.948283 9.16416 0.913037 9.12467C0.877791 9.08517 0.851307 9.03866 0.835326 8.98819C0.819345 8.93772 0.814231 8.88445 0.820319 8.83186ZM11.3803 0.25561C11.1731 0.237543 10.9645 0.262756 10.7675 0.32965C10.5706 0.396543 10.3898 0.503654 10.2364 0.644182C10.0831 0.784709 9.96072 0.955581 9.87698 1.14595C9.79324 1.33631 9.75 1.54201 9.75001 1.74999V5.5628C9.74741 5.91659 9.87107 6.25971 10.0987 6.53053C10.3264 6.80134 10.6432 6.98208 10.9922 7.0403C11.6493 7.14871 12.2517 7.47271 12.7044 7.96123C13.1571 8.44975 13.4343 9.07502 13.4924 9.7385C13.5505 10.402 13.3862 11.0659 13.0254 11.6257C12.6645 12.1855 12.1277 12.6093 11.4994 12.8303C11.4263 12.8572 11.3631 12.9058 11.3185 12.9697C11.2739 13.0336 11.25 13.1096 11.25 13.1875L11.25 19.3028C11.2497 19.3559 11.2606 19.4085 11.2821 19.457C11.3035 19.5056 11.3351 19.549 11.3746 19.5845C11.4141 19.6199 11.4608 19.6466 11.5113 19.6627C11.5619 19.6787 11.6154 19.6839 11.6681 19.6778C14.008 19.3889 16.1648 18.2647 17.7416 16.512C19.3185 14.7593 20.2092 12.496 20.25 10.1387C20.3203 5.04905 16.4241 0.707485 11.3803 0.25561ZM9.49219 12.8275C9.07296 12.6779 8.69226 12.437 8.37769 12.1221C8.06311 11.8072 7.82255 11.4262 7.67344 11.0069C7.64788 10.9325 7.5999 10.8679 7.53611 10.8219C7.47231 10.7759 7.39584 10.7508 7.31719 10.75L1.19251 10.75C1.1395 10.7496 1.08703 10.7606 1.03854 10.782C0.990059 10.8034 0.946669 10.8349 0.911233 10.8743C0.875798 10.9137 0.849123 10.9602 0.832967 11.0107C0.816811 11.0612 0.811542 11.1145 0.817506 11.1672C1.08011 13.3341 2.0616 15.3505 3.60508 16.894C5.14856 18.4375 7.16492 19.4189 9.33188 19.6815C9.38455 19.6875 9.43789 19.6822 9.48837 19.6661C9.53886 19.6499 9.58534 19.6233 9.62476 19.5878C9.66419 19.5524 9.69565 19.509 9.71707 19.4605C9.7385 19.412 9.7494 19.3596 9.74907 19.3065L9.74907 13.1875C9.74922 13.1082 9.72453 13.0308 9.67845 12.9662C9.63238 12.9017 9.56725 12.8531 9.49219 12.8275Z"/>
</svg>
