<svg width="19" height="19" viewBox="0 0 19 19" fill="none" xmlns="http://www.w3.org/2000/svg">
<path d="M18.3 8.83281L18.3 17.5C18.3 17.8978 18.142 18.2793 17.8606 18.5607C17.5793 18.842 17.1978 19 16.8 19H13.05C12.6522 19 12.2706 18.842 11.9893 18.5607C11.708 18.2793 11.55 17.8978 11.55 17.5L11.55 13.75C11.55 13.5511 11.471 13.3603 11.3303 13.2197C11.1897 13.079 10.9989 13 10.8 13H7.79999C7.60108 13 7.41031 13.079 7.26966 13.2197C7.12901 13.3603 7.04999 13.5511 7.04999 13.75L7.04999 17.5C7.04999 17.8978 6.89195 18.2793 6.61065 18.5607C6.32934 18.842 5.94781 19 5.54999 19H1.79999C1.40216 19 1.02063 18.842 0.739328 18.5607C0.458023 18.2793 0.299988 17.8978 0.299988 17.5L0.299988 8.83281C0.299956 8.6252 0.343018 8.41986 0.426449 8.22976C0.509879 8.03966 0.631861 7.86895 0.784675 7.72843L8.28468 0.65218L8.29499 0.641867C8.57112 0.390742 8.93096 0.251587 9.30421 0.251587C9.67745 0.251587 10.0373 0.390742 10.3134 0.641867C10.3166 0.645536 10.3201 0.648981 10.3237 0.65218L17.8237 7.72843C17.975 7.86969 18.0954 8.04073 18.1774 8.2308C18.2594 8.42086 18.3011 8.62583 18.3 8.83281Z" fill="#B3B3B3"/>
</svg>
