<svg width="24" height="24" viewBox="0 0 18 22" fill="currentColor" xmlns="http://www.w3.org/2000/svg">
<path d="M14.35 3.57594V2C14.35 1.60218 14.1919 1.22064 13.9106 0.93934C13.6293 0.658035 13.2478 0.5 12.85 0.5L5.34998 0.5C4.95215 0.5 4.57062 0.658035 4.28932 0.93934C4.00801 1.22064 3.84998 1.60218 3.84998 2V3.57594C3.00351 3.74962 2.24286 4.20995 1.69635 4.87926C1.14983 5.54857 0.850896 6.3859 0.849976 7.25L0.849976 17.75C0.849976 18.7446 1.24506 19.6984 1.94833 20.4017C2.65159 21.1049 3.60541 21.5 4.59998 21.5L13.6 21.5C14.5945 21.5 15.5484 21.1049 16.2516 20.4017C16.9549 19.6984 17.35 18.7446 17.35 17.75L17.35 7.25C17.3491 6.3859 17.0501 5.54857 16.5036 4.87926C15.9571 4.20995 15.1964 3.74962 14.35 3.57594ZM8.34998 2L9.84998 2V3.5H8.34998V2ZM5.34998 2H6.84998L6.84998 3.5H5.34998L5.34998 2ZM9.84998 16.25V17C9.84998 17.1989 9.77096 17.3897 9.63031 17.5303C9.48965 17.671 9.29889 17.75 9.09998 17.75C8.90106 17.75 8.7103 17.671 8.56965 17.5303C8.42899 17.3897 8.34998 17.1989 8.34998 17V16.25H7.59998C7.40106 16.25 7.2103 16.171 7.06965 16.0303C6.92899 15.8897 6.84998 15.6989 6.84998 15.5C6.84998 15.3011 6.92899 15.1103 7.06965 14.9697C7.2103 14.829 7.40106 14.75 7.59998 14.75H9.84998C10.0489 14.75 10.2397 14.671 10.3803 14.5303C10.521 14.3897 10.6 14.1989 10.6 14C10.6 13.8011 10.521 13.6103 10.3803 13.4697C10.2397 13.329 10.0489 13.25 9.84998 13.25H8.34998C7.75324 13.25 7.18094 13.0129 6.75899 12.591C6.33703 12.169 6.09998 11.5967 6.09998 11C6.09998 10.4033 6.33703 9.83097 6.75899 9.40901C7.18094 8.98705 7.75324 8.75 8.34998 8.75V8C8.34998 7.80109 8.42899 7.61032 8.56965 7.46967C8.7103 7.32902 8.90106 7.25 9.09998 7.25C9.29889 7.25 9.48965 7.32902 9.63031 7.46967C9.77096 7.61032 9.84998 7.80109 9.84998 8V8.75H10.6C10.7989 8.75 10.9897 8.82902 11.1303 8.96967C11.271 9.11032 11.35 9.30109 11.35 9.5C11.35 9.69891 11.271 9.88968 11.1303 10.0303C10.9897 10.171 10.7989 10.25 10.6 10.25H8.34998C8.15106 10.25 7.9603 10.329 7.81965 10.4697C7.67899 10.6103 7.59998 10.8011 7.59998 11C7.59998 11.1989 7.67899 11.3897 7.81965 11.5303C7.9603 11.671 8.15106 11.75 8.34998 11.75H9.84998C10.4467 11.75 11.019 11.9871 11.441 12.409C11.8629 12.831 12.1 13.4033 12.1 14C12.1 14.5967 11.8629 15.169 11.441 15.591C11.019 16.0129 10.4467 16.25 9.84998 16.25ZM12.85 3.5H11.35V2H12.85V3.5Z"/>
</svg>
