<svg width="18" height="18" viewBox="0 0 18 18" fill="none" xmlns="http://www.w3.org/2000/svg">
<path d="M8.09276 13.2131C8.14961 13.3502 8.16454 13.501 8.13567 13.6465C8.1068 13.792 8.03542 13.9257 7.93057 14.0306L4.93057 17.0306C4.86091 17.1004 4.7782 17.1557 4.68715 17.1934C4.5961 17.2312 4.49851 17.2506 4.39994 17.2506C4.30138 17.2506 4.20379 17.2312 4.11274 17.1934C4.02169 17.1557 3.93897 17.1004 3.86932 17.0306L0.869319 14.0306C0.76431 13.9257 0.692785 13.7921 0.663797 13.6465C0.634809 13.5009 0.649662 13.35 0.706477 13.2129C0.763291 13.0758 0.859512 12.9586 0.982957 12.8762C1.1064 12.7938 1.25152 12.7499 1.39994 12.75H3.64994L3.64994 1.50001C3.64994 1.3011 3.72896 1.11033 3.86961 0.96968C4.01027 0.829028 4.20103 0.75001 4.39994 0.75001C4.59886 0.75001 4.78962 0.829028 4.93027 0.96968C5.07093 1.11033 5.14994 1.3011 5.14994 1.50001L5.14994 12.75L7.39994 12.75C7.54828 12.75 7.69327 12.7941 7.81659 12.8765C7.93991 12.9589 8.03602 13.0761 8.09276 13.2131ZM16.9306 3.96938L13.9306 0.969385C13.8609 0.899653 13.7782 0.844334 13.6872 0.806591C13.5961 0.768847 13.4985 0.74942 13.3999 0.74942C13.3014 0.74942 13.2038 0.768847 13.1127 0.806591C13.0217 0.844334 12.939 0.899653 12.8693 0.969385L9.86932 3.96938C9.76431 4.07428 9.69279 4.20797 9.6638 4.35353C9.63481 4.49909 9.64966 4.64999 9.70648 4.7871C9.76329 4.92422 9.85951 5.0414 9.98296 5.1238C10.1064 5.2062 10.2515 5.25013 10.3999 5.25001H12.6499L12.6499 16.5C12.6499 16.6989 12.729 16.8897 12.8696 17.0303C13.0103 17.171 13.201 17.25 13.3999 17.25C13.5989 17.25 13.7896 17.171 13.9303 17.0303C14.0709 16.8897 14.1499 16.6989 14.1499 16.5L14.1499 5.25001L16.3999 5.25001C16.5484 5.25013 16.6935 5.2062 16.8169 5.1238C16.9404 5.0414 17.0366 4.92422 17.0934 4.7871C17.1502 4.64999 17.1651 4.49909 17.1361 4.35353C17.1071 4.20797 17.0356 4.07428 16.9306 3.96938Z" fill="#B3B3B3"/>
</svg>
